<?xml version="1.0" encoding="utf-8"?>
<!-- Generator: Adobe Illustrator 23.0.3, SVG Export Plug-In . SVG Version: 6.00 Build 0)  -->
<svg version="1.1" id="Layer_1" xmlns="http://www.w3.org/2000/svg" xmlns:xlink="http://www.w3.org/1999/xlink" x="0px" y="0px"
	 viewBox="0 0 360 360" style="enable-background:new 0 0 360 360;" xml:space="preserve">
<style type="text/css">
	.st0{clip-path:url(#SVGID_2_);fill:url(#SVGID_3_);}
	.st1{clip-path:url(#SVGID_5_);fill:url(#SVGID_6_);}
	.st2{clip-path:url(#SVGID_8_);fill:url(#SVGID_9_);}
	.st3{clip-path:url(#SVGID_11_);fill:#F05B22;}
</style>
<g>
	<defs>
		<path id="SVGID_1_" d="M270.08,286.44l3.97-1.94l4.57,3.15l-3.97,1.94L270.08,286.44z M281.55,281.24l3.52-2.67l5.09,2.2
			l-3.52,2.67L281.55,281.24z M291.35,274.12l3.52-2.67l5.09,2.2l-3.52,2.67L291.35,274.12z M300.69,267.31l3.52-2.67l5.09,2.2
			l-3.52,2.67L300.69,267.31z M310.01,260.64l3.52-2.67l5.09,2.2l-3.52,2.67L310.01,260.64z M259.28,257.75l3.95-1.97l4.66,2.29
			l-3.96,1.97L259.28,257.75z M268.43,253.38l3.52-2.67l5,1.38l-3.52,2.67L268.43,253.38z M276.58,246.95l3.52-2.67l5,1.38
			l-3.52,2.67L276.58,246.95z M195.11,158.42h0.55l13.64,70.4h-27.83L195.11,158.42z M284.96,31.49l-78,78h-24.67l-7.09,31.76
			L19.23,297.22c-0.88,0.88-0.88,2.29,0,3.17c0.44,0.44,1.01,0.66,1.59,0.66c0.57,0,1.15-0.22,1.58-0.66l150.97-150.97l-0.6,2.67
			l0.09-0.09l-32.33,144.77h27.83l8.19-41.75h37.93l8.18,41.75h26.27c16.14,1.66,32.39-3.44,44.68-14.06l35.07-26.22l-50.07-17.28
			l-12.93,11.18c-2.38,2.05-15.11,4.49-24.28,5.64l-31.59-141.46l-0.16,0.16l-0.29-1.29l78.76-78.77c0.88-0.88,0.88-2.29,0-3.17
			c-0.44-0.44-1.01-0.66-1.58-0.66C285.97,30.84,285.39,31.05,284.96,31.49"/>
	</defs>
	<clipPath id="SVGID_2_">
		<use xlink:href="#SVGID_1_"  style="overflow:visible;"/>
	</clipPath>
	
		<linearGradient id="SVGID_3_" gradientUnits="userSpaceOnUse" x1="1.242369e-06" y1="359.9996" x2="1" y2="359.9996" gradientTransform="matrix(0 270.2042 270.2042 0 -97099.8828 30.8367)">
		<stop  offset="0" style="stop-color:#F8D93A"/>
		<stop  offset="0.333" style="stop-color:#EEB51D"/>
		<stop  offset="0.5389" style="stop-color:#F19520"/>
		<stop  offset="0.719" style="stop-color:#F26E21"/>
		<stop  offset="1" style="stop-color:#F05B22"/>
	</linearGradient>
	<rect x="18.36" y="30.84" class="st0" width="310.33" height="270.2"/>
</g>
<g>
	<g>
		<defs>
			<polygon id="SVGID_4_" points="91,58.51 91.09,39.14 62.68,39.14 62.68,233.42 81.86,233.42 90.51,224.77 90.51,157.56 
				90.68,122.33 117.79,143.65 117.79,37.43 			"/>
		</defs>
		<clipPath id="SVGID_5_">
			<use xlink:href="#SVGID_4_"  style="overflow:visible;"/>
		</clipPath>
		
			<linearGradient id="SVGID_6_" gradientUnits="userSpaceOnUse" x1="-2.024221e-06" y1="360" x2="1" y2="360" gradientTransform="matrix(0 195.9907 195.9907 0 -70466.4297 37.4294)">
			<stop  offset="0" style="stop-color:#F8D93A"/>
			<stop  offset="0.4605" style="stop-color:#EEB51D"/>
			<stop  offset="0.9871" style="stop-color:#F19520"/>
			<stop  offset="1" style="stop-color:#F19520"/>
		</linearGradient>
		<rect x="62.68" y="37.43" class="st1" width="55.12" height="195.99"/>
	</g>
	<g>
		<defs>
			<rect id="SVGID_7_" x="129.98" y="32.21" width="31.78" height="116.67"/>
		</defs>
		<clipPath id="SVGID_8_">
			<use xlink:href="#SVGID_7_"  style="overflow:visible;"/>
		</clipPath>
		
			<linearGradient id="SVGID_9_" gradientUnits="userSpaceOnUse" x1="-1.569401e-06" y1="360" x2="1" y2="360" gradientTransform="matrix(0 116.6723 116.6723 0 -41856.1406 32.2052)">
			<stop  offset="0" style="stop-color:#F8D93A"/>
			<stop  offset="0.4605" style="stop-color:#EEB51D"/>
			<stop  offset="0.9871" style="stop-color:#F19520"/>
			<stop  offset="1" style="stop-color:#F19520"/>
		</linearGradient>
		<rect x="129.98" y="32.21" class="st2" width="31.78" height="116.67"/>
	</g>
</g>
<g>
	<defs>
		<rect id="SVGID_10_" width="360" height="360"/>
	</defs>
	<clipPath id="SVGID_11_">
		<use xlink:href="#SVGID_10_"  style="overflow:visible;"/>
	</clipPath>
	<path class="st3" d="M19.35,322.18h2.38c1.68,0,2.78,0.65,2.78,2.17c0,1.56-1.22,2.2-2.84,2.2h-1.23v3.42h-1.09V322.18z
		 M20.44,325.62h1.15c1.07,0,1.82-0.35,1.82-1.27c0-0.94-0.77-1.24-1.79-1.24h-1.18V325.62z"/>
	<path class="st3" d="M33.88,329.97h-1.21l3.38-7.79h0.99l3.34,7.79h-1.23l-0.79-1.91h-3.7L33.88,329.97z M35.04,327.1h2.91
		l-1.45-3.65L35.04,327.1z"/>
	<polygon class="st3" points="54.84,323.14 50.44,329 54.91,329 54.91,329.97 49.12,329.97 49.12,329.01 53.51,323.14 49.21,323.14 
		49.21,322.18 54.84,322.18 	"/>
	<polygon class="st3" points="78.39,329.97 77.29,329.97 77.29,326.6 74.38,322.18 75.72,322.18 77.87,325.7 80.04,322.18 
		81.31,322.18 78.39,326.6 	"/>
	<path class="st3" d="M101.48,329.97h-1.21l3.38-7.79h0.99l3.34,7.79h-1.23l-0.79-1.91h-3.7L101.48,329.97z M102.64,327.1h2.91
		l-1.45-3.65L102.64,327.1z"/>
	<polygon class="st3" points="121.33,328.17 121.35,328.17 123.65,322.18 125.35,322.18 125.35,329.97 124.26,329.97 124.26,323.46 
		124.24,323.46 121.65,329.97 120.96,329.97 118.38,323.46 118.36,323.46 118.36,329.97 117.31,329.97 117.31,322.18 119,322.18 	
		"/>
	<path class="st3" d="M139.28,330.17c-2.37,0-4.11-1.71-4.11-4.1c0-2.43,1.75-4.08,4.11-4.08c2.38,0,4.14,1.65,4.14,4.08
		C143.42,328.46,141.66,330.17,139.28,330.17 M139.28,322.94c-1.79,0-2.94,1.42-2.94,3.12c0,1.74,1.15,3.12,2.94,3.12
		c1.8,0,2.96-1.39,2.96-3.12C142.24,324.36,141.1,322.94,139.28,322.94"/>
	<path class="st3" d="M154.32,329.97h-1.09v-7.79h2.5c1.51,0,2.77,0.57,2.77,2.15c0,1.14-0.78,1.87-1.89,2.06l2.18,3.57h-1.32
		l-1.98-3.46h-1.17V329.97z M154.32,325.59h1.25c1.02,0,1.83-0.32,1.83-1.25c0-0.93-0.8-1.23-1.75-1.23h-1.33V325.59z"/>
	<path class="st3" d="M179.39,322.18h2.38c1.68,0,2.78,0.65,2.78,2.17c0,1.56-1.22,2.2-2.84,2.2h-1.23v3.42h-1.09V322.18z
		 M180.48,325.62h1.15c1.07,0,1.81-0.35,1.81-1.27c0-0.94-0.77-1.24-1.79-1.24h-1.18V325.62z"/>
	<path class="st3" d="M195.35,329.97h-1.09v-7.79h2.5c1.51,0,2.77,0.57,2.77,2.15c0,1.14-0.78,1.87-1.89,2.06l2.18,3.57h-1.32
		l-1.98-3.46h-1.16V329.97z M195.35,325.59h1.25c1.02,0,1.82-0.32,1.82-1.25c0-0.93-0.8-1.23-1.75-1.23h-1.33V325.59z"/>
	<path class="st3" d="M213.06,330.17c-2.36,0-4.11-1.71-4.11-4.1c0-2.43,1.75-4.08,4.11-4.08c2.38,0,4.14,1.65,4.14,4.08
		C217.19,328.46,215.43,330.17,213.06,330.17 M213.06,322.94c-1.79,0-2.94,1.42-2.94,3.12c0,1.74,1.16,3.12,2.94,3.12
		c1.8,0,2.96-1.39,2.96-3.12C216.01,324.36,214.87,322.94,213.06,322.94"/>
	<path class="st3" d="M227,322.18h2.67c1.99,0,4.2,1.13,4.2,3.89c0,2.66-2.21,3.89-4.2,3.89H227V322.18z M228.09,329.01h1.36
		c1.88,0,3.26-1.08,3.26-2.94c0-1.92-1.38-2.95-3.26-2.95h-1.36V329.01z"/>
	<path class="st3" d="M243.65,327.09v-4.9h1.09v4.84c0,1.07,0.48,2.17,1.93,2.17c1.45,0,1.94-1.1,1.94-2.17v-4.84h1.09v4.9
		c0,1.6-0.97,3.08-3.03,3.08C244.61,330.17,243.65,328.68,243.65,327.09"/>
	<path class="st3" d="M266.53,328.76c-0.6,0.83-1.61,1.41-2.97,1.41c-2.39,0-4.1-1.7-4.1-4.1c0-2.43,1.78-4.08,4.15-4.08
		c1.07,0,2.22,0.42,2.79,1.21l-0.86,0.66c-0.37-0.53-1.13-0.91-1.94-0.91c-1.8,0-2.96,1.42-2.96,3.12c0,1.75,1.13,3.13,2.93,3.13
		c0.87,0,1.63-0.36,2.09-1.03L266.53,328.76z"/>
	<polygon class="st3" points="278.63,329.97 277.54,329.97 277.54,323.14 275.05,323.14 275.05,322.18 281.13,322.18 281.13,323.14 
		278.63,323.14 	"/>
	<rect x="290.49" y="322.18" class="st3" width="1.09" height="7.79"/>
	<path class="st3" d="M305.52,330.17c-2.37,0-4.11-1.71-4.11-4.1c0-2.43,1.75-4.08,4.11-4.08c2.38,0,4.14,1.65,4.14,4.08
		C309.65,328.46,307.89,330.17,305.52,330.17 M305.52,322.94c-1.79,0-2.94,1.42-2.94,3.12c0,1.74,1.16,3.12,2.94,3.12
		c1.8,0,2.96-1.39,2.96-3.12C308.47,324.36,307.33,322.94,305.52,322.94"/>
	<polygon class="st3" points="324.95,328.41 324.97,328.41 324.97,322.18 326.06,322.18 326.06,329.97 324.69,329.97 320.57,323.61 
		320.55,323.61 320.55,329.97 319.46,329.97 319.46,322.18 320.88,322.18 	"/>
	<path class="st3" d="M340.15,323.62c-0.31-0.43-0.87-0.73-1.52-0.73c-0.7,0-1.52,0.39-1.52,1.26c0,0.85,0.71,1.08,1.6,1.36
		c1.04,0.33,2.29,0.73,2.29,2.28c0,1.62-1.31,2.36-2.7,2.36c-0.98,0-1.97-0.39-2.56-1.13l0.85-0.71c0.36,0.54,1.02,0.91,1.74,0.91
		c0.73,0,1.56-0.41,1.56-1.33c0-0.95-0.86-1.2-1.85-1.51c-0.99-0.31-2.02-0.76-2.02-2.19c0-1.55,1.39-2.22,2.67-2.22
		c0.9,0,1.75,0.35,2.23,0.89L340.15,323.62z"/>
</g>
</svg>
