<?xml version="1.0" encoding="utf-8"?>
<!-- Generator: Adobe Illustrator 23.0.3, SVG Export Plug-In . SVG Version: 6.00 Build 0)  -->
<svg version="1.1" id="Layer_1" xmlns="http://www.w3.org/2000/svg" xmlns:xlink="http://www.w3.org/1999/xlink" x="0px" y="0px"
	 viewBox="0 0 612 792" style="enable-background:new 0 0 612 792;" xml:space="preserve">
<style type="text/css">
	.st0{clip-path:url(#SVGID_2_);fill:url(#SVGID_3_);}
	.st1{clip-path:url(#SVGID_5_);fill:url(#SVGID_6_);}
	.st2{clip-path:url(#SVGID_8_);fill:url(#SVGID_9_);}
	.st3{clip-path:url(#SVGID_11_);fill:#F15C24;}
	.st4{clip-path:url(#SVGID_13_);fill:#F15C24;}
	.st5{clip-path:url(#SVGID_15_);fill:#F15C24;}
	.st6{clip-path:url(#SVGID_17_);fill:#F15C24;}
	.st7{clip-path:url(#SVGID_19_);fill:#F15C24;}
	.st8{clip-path:url(#SVGID_21_);fill:#F15C24;}
	.st9{clip-path:url(#SVGID_23_);fill:#F15C24;}
	.st10{clip-path:url(#SVGID_25_);fill:#F15C24;}
	.st11{clip-path:url(#SVGID_27_);fill:#F15C24;}
	.st12{clip-path:url(#SVGID_29_);fill:#F15C24;}
	.st13{clip-path:url(#SVGID_31_);fill:#F15C24;}
	.st14{clip-path:url(#SVGID_33_);fill:#F15C24;}
	.st15{clip-path:url(#SVGID_35_);fill:#F15C24;}
	.st16{clip-path:url(#SVGID_37_);fill:#F15C24;}
	.st17{clip-path:url(#SVGID_39_);fill:#F15C24;}
	.st18{clip-path:url(#SVGID_41_);fill:#F15C24;}
	.st19{clip-path:url(#SVGID_43_);fill:#F15C24;}
	.st20{clip-path:url(#SVGID_45_);fill:#F15C24;}
	.st21{clip-path:url(#SVGID_47_);fill:#F15C24;}
</style>
<g>
	<g>
		<defs>
			<path id="SVGID_1_" d="M363.37,440.86l2.51-1.23l2.89,1.99l-2.51,1.23L363.37,440.86z M370.62,437.58l2.22-1.69l3.22,1.39
				l-2.22,1.69L370.62,437.58z M376.81,433.08l2.22-1.69l3.22,1.39l-2.22,1.69L376.81,433.08z M382.71,428.78l2.22-1.69l3.22,1.39
				l-2.22,1.69L382.71,428.78z M388.6,424.56l2.22-1.69l3.22,1.39l-2.22,1.69L388.6,424.56z M356.55,422.74l2.5-1.24l2.94,1.45
				l-2.5,1.24L356.55,422.74z M362.33,419.97l2.22-1.69l3.16,0.87l-2.22,1.69L362.33,419.97z M367.48,415.91l2.22-1.69l3.16,0.87
				l-2.22,1.69L367.48,415.91z M316,359.97h0.35l8.62,44.48h-17.59L316,359.97z M372.77,279.77l-49.29,49.29H307.9l-4.48,20.07
				l-98.56,98.56c-0.56,0.56-0.56,1.45,0,2c0.28,0.28,0.64,0.42,1,0.42c0.36,0,0.73-0.14,1-0.42l95.4-95.4l-0.38,1.69l0.06-0.06
				l-20.43,91.48h17.59l5.18-26.38h23.97l5.17,26.38h16.6c10.2,1.05,20.47-2.17,28.23-8.88l22.16-16.57l-31.64-10.92l-8.17,7.06
				c-1.5,1.3-9.55,2.84-15.34,3.56l-19.96-89.39l-0.1,0.1l-0.18-0.82l49.77-49.77c0.56-0.56,0.56-1.45,0-2
				c-0.28-0.28-0.64-0.42-1-0.42C373.41,279.35,373.04,279.49,372.77,279.77"/>
		</defs>
		<clipPath id="SVGID_2_">
			<use xlink:href="#SVGID_1_"  style="overflow:visible;"/>
		</clipPath>
		
			<linearGradient id="SVGID_3_" gradientUnits="userSpaceOnUse" x1="1.916" y1="432.5273" x2="2.5479" y2="432.5273" gradientTransform="matrix(0 270.2042 -270.2042 0 117173.0391 -238.3675)">
			<stop  offset="0" style="stop-color:#F8D93C"/>
			<stop  offset="0.333" style="stop-color:#EDB51E"/>
			<stop  offset="0.5389" style="stop-color:#F09620"/>
			<stop  offset="0.719" style="stop-color:#F26F24"/>
			<stop  offset="1" style="stop-color:#F15C24"/>
		</linearGradient>
		<rect x="204.31" y="279.35" class="st0" width="196.09" height="170.74"/>
	</g>
</g>
<g>
	<g>
		<g>
			<defs>
				<polygon id="SVGID_4_" points="250.21,296.84 250.27,284.6 232.32,284.6 232.32,407.36 244.44,407.36 249.9,401.9 249.9,359.43 
					250.01,337.17 267.14,350.64 267.14,283.52 				"/>
			</defs>
			<clipPath id="SVGID_5_">
				<use xlink:href="#SVGID_4_"  style="overflow:visible;"/>
			</clipPath>
			
				<linearGradient id="SVGID_6_" gradientUnits="userSpaceOnUse" x1="2.2505" y1="432.1913" x2="2.8824" y2="432.1913" gradientTransform="matrix(0 195.9907 -195.9907 0 84955.2031 -157.5613)">
				<stop  offset="0" style="stop-color:#F8D93C"/>
				<stop  offset="0.4605" style="stop-color:#EDB51E"/>
				<stop  offset="0.9871" style="stop-color:#F09620"/>
				<stop  offset="1" style="stop-color:#F09620"/>
			</linearGradient>
			<rect x="232.32" y="283.52" class="st1" width="34.83" height="123.84"/>
		</g>
	</g>
	<g>
		<g>
			<defs>
				<rect id="SVGID_7_" x="274.84" y="280.22" width="20.08" height="73.72"/>
			</defs>
			<clipPath id="SVGID_8_">
				<use xlink:href="#SVGID_7_"  style="overflow:visible;"/>
			</clipPath>
			
				<linearGradient id="SVGID_9_" gradientUnits="userSpaceOnUse" x1="3.1172" y1="431.8172" x2="3.749" y2="431.8172" gradientTransform="matrix(0 116.6723 -116.6723 0 50665.9961 -83.4671)">
				<stop  offset="0" style="stop-color:#F8D93C"/>
				<stop  offset="0.4605" style="stop-color:#EDB51E"/>
				<stop  offset="0.9871" style="stop-color:#F09620"/>
				<stop  offset="1" style="stop-color:#F09620"/>
			</linearGradient>
			<rect x="274.84" y="280.22" class="st2" width="20.08" height="73.72"/>
		</g>
	</g>
</g>
<g>
	<g>
		<defs>
			<rect id="SVGID_10_" x="192.71" y="259.87" width="227.48" height="227.48"/>
		</defs>
		<clipPath id="SVGID_11_">
			<use xlink:href="#SVGID_10_"  style="overflow:visible;"/>
		</clipPath>
		<path class="st3" d="M204.94,463.45h1.5c1.06,0,1.76,0.41,1.76,1.37c0,0.99-0.77,1.39-1.79,1.39h-0.78v2.16h-0.69V463.45z
			 M205.63,465.62h0.73c0.68,0,1.15-0.22,1.15-0.8c0-0.59-0.49-0.78-1.13-0.78h-0.75C205.63,464.04,205.63,465.62,205.63,465.62z"/>
	</g>
	<g>
		<defs>
			<rect id="SVGID_12_" x="192.71" y="259.87" width="227.48" height="227.48"/>
		</defs>
		<clipPath id="SVGID_13_">
			<use xlink:href="#SVGID_12_"  style="overflow:visible;"/>
		</clipPath>
		<path class="st4" d="M214.12,468.37h-0.76l2.14-4.92h0.63l2.11,4.92h-0.78l-0.5-1.21h-2.34L214.12,468.37z M214.85,466.56h1.84
			l-0.92-2.31L214.85,466.56z"/>
	</g>
	<g>
		<defs>
			<rect id="SVGID_14_" x="192.71" y="259.87" width="227.48" height="227.48"/>
		</defs>
		<clipPath id="SVGID_15_">
			<use xlink:href="#SVGID_14_"  style="overflow:visible;"/>
		</clipPath>
		<polygon class="st5" points="227.36,464.05 224.58,467.76 227.41,467.76 227.41,468.37 223.75,468.37 223.75,467.76 
			226.52,464.05 223.81,464.05 223.81,463.45 227.36,463.45 		"/>
	</g>
	<g>
		<defs>
			<rect id="SVGID_16_" x="192.71" y="259.87" width="227.48" height="227.48"/>
		</defs>
		<clipPath id="SVGID_17_">
			<use xlink:href="#SVGID_16_"  style="overflow:visible;"/>
		</clipPath>
		<polygon class="st6" points="242.24,468.37 241.55,468.37 241.55,466.24 239.71,463.45 240.56,463.45 241.92,465.67 
			243.29,463.45 244.09,463.45 242.24,466.24 		"/>
	</g>
	<g>
		<defs>
			<rect id="SVGID_18_" x="192.71" y="259.87" width="227.48" height="227.48"/>
		</defs>
		<clipPath id="SVGID_19_">
			<use xlink:href="#SVGID_18_"  style="overflow:visible;"/>
		</clipPath>
		<path class="st7" d="M256.83,468.37h-0.76l2.14-4.92h0.63l2.11,4.92h-0.78l-0.5-1.21h-2.34L256.83,468.37z M257.57,466.56h1.84
			l-0.92-2.31L257.57,466.56z"/>
	</g>
	<g>
		<defs>
			<rect id="SVGID_20_" x="192.71" y="259.87" width="227.48" height="227.48"/>
		</defs>
		<clipPath id="SVGID_21_">
			<use xlink:href="#SVGID_20_"  style="overflow:visible;"/>
		</clipPath>
		<polygon class="st8" points="269.38,467.23 269.39,467.23 270.84,463.45 271.92,463.45 271.92,468.37 271.23,468.37 
			271.23,464.26 271.22,464.26 269.58,468.37 269.14,468.37 267.51,464.26 267.5,464.26 267.5,468.37 266.84,468.37 266.84,463.45 
			267.9,463.45 		"/>
	</g>
	<g>
		<defs>
			<rect id="SVGID_22_" x="192.71" y="259.87" width="227.48" height="227.48"/>
		</defs>
		<clipPath id="SVGID_23_">
			<use xlink:href="#SVGID_22_"  style="overflow:visible;"/>
		</clipPath>
		<path class="st9" d="M280.72,468.5c-1.5,0-2.6-1.08-2.6-2.59c0-1.54,1.11-2.58,2.6-2.58c1.5,0,2.62,1.04,2.62,2.58
			C283.34,467.42,282.22,468.5,280.72,468.5 M280.72,463.93c-1.13,0-1.86,0.9-1.86,1.97c0,1.1,0.73,1.97,1.86,1.97
			c1.14,0,1.87-0.88,1.87-1.97C282.59,464.83,281.87,463.93,280.72,463.93"/>
	</g>
	<g>
		<defs>
			<rect id="SVGID_24_" x="192.71" y="259.87" width="227.48" height="227.48"/>
		</defs>
		<clipPath id="SVGID_25_">
			<use xlink:href="#SVGID_24_"  style="overflow:visible;"/>
		</clipPath>
		<path class="st10" d="M290.22,468.37h-0.69v-4.92h1.58c0.95,0,1.75,0.36,1.75,1.36c0,0.72-0.49,1.18-1.19,1.3l1.38,2.26h-0.83
			l-1.25-2.19h-0.74V468.37z M290.22,465.6h0.79c0.64,0,1.16-0.2,1.16-0.79s-0.51-0.78-1.11-0.78h-0.84V465.6z"/>
	</g>
	<g>
		<defs>
			<rect id="SVGID_26_" x="192.71" y="259.87" width="227.48" height="227.48"/>
		</defs>
		<clipPath id="SVGID_27_">
			<use xlink:href="#SVGID_26_"  style="overflow:visible;"/>
		</clipPath>
		<path class="st11" d="M306.06,463.45h1.5c1.06,0,1.76,0.41,1.76,1.37c0,0.99-0.77,1.39-1.79,1.39h-0.78v2.16h-0.69V463.45
			L306.06,463.45z M306.75,465.62h0.73c0.68,0,1.14-0.22,1.14-0.8c0-0.59-0.49-0.78-1.13-0.78h-0.75L306.75,465.62L306.75,465.62z"
			/>
	</g>
	<g>
		<defs>
			<rect id="SVGID_28_" x="192.71" y="259.87" width="227.48" height="227.48"/>
		</defs>
		<clipPath id="SVGID_29_">
			<use xlink:href="#SVGID_28_"  style="overflow:visible;"/>
		</clipPath>
		<path class="st12" d="M316.15,468.37h-0.69v-4.92h1.58c0.95,0,1.75,0.36,1.75,1.36c0,0.72-0.49,1.18-1.19,1.3l1.38,2.26h-0.83
			l-1.25-2.19h-0.73L316.15,468.37L316.15,468.37z M316.15,465.6h0.79c0.64,0,1.15-0.2,1.15-0.79s-0.51-0.78-1.11-0.78h-0.84
			L316.15,465.6L316.15,465.6z"/>
	</g>
	<g>
		<defs>
			<rect id="SVGID_30_" x="192.71" y="259.87" width="227.48" height="227.48"/>
		</defs>
		<clipPath id="SVGID_31_">
			<use xlink:href="#SVGID_30_"  style="overflow:visible;"/>
		</clipPath>
		<path class="st13" d="M327.34,468.5c-1.49,0-2.6-1.08-2.6-2.59c0-1.54,1.11-2.58,2.6-2.58c1.5,0,2.62,1.04,2.62,2.58
			C329.95,467.42,328.84,468.5,327.34,468.5 M327.34,463.93c-1.13,0-1.86,0.9-1.86,1.97c0,1.1,0.73,1.97,1.86,1.97
			c1.14,0,1.87-0.88,1.87-1.97C329.2,464.83,328.48,463.93,327.34,463.93"/>
	</g>
	<g>
		<defs>
			<rect id="SVGID_32_" x="192.71" y="259.87" width="227.48" height="227.48"/>
		</defs>
		<clipPath id="SVGID_33_">
			<use xlink:href="#SVGID_32_"  style="overflow:visible;"/>
		</clipPath>
		<path class="st14" d="M336.15,463.45h1.69c1.26,0,2.65,0.71,2.65,2.46c0,1.68-1.4,2.46-2.65,2.46h-1.69V463.45z M336.84,467.76
			h0.86c1.19,0,2.06-0.68,2.06-1.86c0-1.21-0.87-1.86-2.06-1.86h-0.86V467.76z"/>
	</g>
	<g>
		<defs>
			<rect id="SVGID_34_" x="192.71" y="259.87" width="227.48" height="227.48"/>
		</defs>
		<clipPath id="SVGID_35_">
			<use xlink:href="#SVGID_34_"  style="overflow:visible;"/>
		</clipPath>
		<path class="st15" d="M346.67,466.55v-3.1h0.69v3.06c0,0.68,0.3,1.37,1.22,1.37c0.92,0,1.23-0.7,1.23-1.37v-3.06h0.69v3.1
			c0,1.01-0.61,1.95-1.91,1.95C347.28,468.5,346.67,467.56,346.67,466.55"/>
	</g>
	<g>
		<defs>
			<rect id="SVGID_36_" x="192.71" y="259.87" width="227.48" height="227.48"/>
		</defs>
		<clipPath id="SVGID_37_">
			<use xlink:href="#SVGID_36_"  style="overflow:visible;"/>
		</clipPath>
		<path class="st16" d="M361.13,467.61c-0.38,0.52-1.02,0.89-1.88,0.89c-1.51,0-2.59-1.07-2.59-2.59c0-1.54,1.12-2.58,2.62-2.58
			c0.68,0,1.4,0.27,1.76,0.76l-0.54,0.42c-0.23-0.33-0.71-0.58-1.23-0.58c-1.14,0-1.87,0.9-1.87,1.97c0,1.11,0.71,1.98,1.85,1.98
			c0.55,0,1.03-0.23,1.32-0.65L361.13,467.61z"/>
	</g>
	<g>
		<defs>
			<rect id="SVGID_38_" x="192.71" y="259.87" width="227.48" height="227.48"/>
		</defs>
		<clipPath id="SVGID_39_">
			<use xlink:href="#SVGID_38_"  style="overflow:visible;"/>
		</clipPath>
		<polygon class="st17" points="368.77,468.37 368.08,468.37 368.08,464.05 366.51,464.05 366.51,463.45 370.35,463.45 
			370.35,464.05 368.77,464.05 		"/>
	</g>
	<g>
		<defs>
			<rect id="SVGID_40_" x="192.71" y="259.87" width="227.48" height="227.48"/>
		</defs>
		<clipPath id="SVGID_41_">
			<use xlink:href="#SVGID_40_"  style="overflow:visible;"/>
		</clipPath>
		<rect x="376.27" y="463.45" class="st18" width="0.69" height="4.92"/>
	</g>
	<g>
		<defs>
			<rect id="SVGID_42_" x="192.71" y="259.87" width="227.48" height="227.48"/>
		</defs>
		<clipPath id="SVGID_43_">
			<use xlink:href="#SVGID_42_"  style="overflow:visible;"/>
		</clipPath>
		<path class="st19" d="M385.76,468.5c-1.5,0-2.6-1.08-2.6-2.59c0-1.54,1.11-2.58,2.6-2.58c1.5,0,2.62,1.04,2.62,2.58
			C388.37,467.42,387.26,468.5,385.76,468.5 M385.76,463.93c-1.13,0-1.86,0.9-1.86,1.97c0,1.1,0.73,1.97,1.86,1.97
			c1.14,0,1.87-0.88,1.87-1.97C387.63,464.83,386.91,463.93,385.76,463.93"/>
	</g>
	<g>
		<defs>
			<rect id="SVGID_44_" x="192.71" y="259.87" width="227.48" height="227.48"/>
		</defs>
		<clipPath id="SVGID_45_">
			<use xlink:href="#SVGID_44_"  style="overflow:visible;"/>
		</clipPath>
		<polygon class="st20" points="398.04,467.38 398.05,467.38 398.05,463.45 398.74,463.45 398.74,468.37 397.88,468.37 
			395.27,464.35 395.26,464.35 395.26,468.37 394.57,468.37 394.57,463.45 395.47,463.45 		"/>
	</g>
	<g>
		<defs>
			<rect id="SVGID_46_" x="192.71" y="259.87" width="227.48" height="227.48"/>
		</defs>
		<clipPath id="SVGID_47_">
			<use xlink:href="#SVGID_46_"  style="overflow:visible;"/>
		</clipPath>
		<path class="st21" d="M407.65,464.36c-0.2-0.27-0.55-0.46-0.96-0.46c-0.44,0-0.96,0.25-0.96,0.8c0,0.54,0.45,0.68,1.01,0.86
			c0.66,0.21,1.45,0.46,1.45,1.44c0,1.02-0.83,1.49-1.71,1.49c-0.62,0-1.24-0.25-1.62-0.71l0.54-0.45c0.23,0.34,0.64,0.58,1.1,0.58
			c0.46,0,0.99-0.26,0.99-0.84c0-0.6-0.54-0.76-1.17-0.95c-0.63-0.2-1.28-0.48-1.28-1.38c0-0.98,0.88-1.4,1.69-1.4
			c0.57,0,1.11,0.22,1.41,0.56L407.65,464.36z"/>
	</g>
</g>
</svg>
